<svg version="1.2" xmlns="http://www.w3.org/2000/svg" viewBox="0 0 977 152" width="977" height="152"><style>.a{opacity:0;stroke:#000;paint-order:stroke fill markers;stroke-linejoin:round;stroke-width:2}</style><path class="a" d="m36.4 116v-97.7h71.2v9.3h-61.8v31.9h49.5v9.4h-49.5v37.8h66.4v9.3zm-3.5 0v-97.7h71.1v9.3h-61.7v31.9h49.5v9.4h-49.5v37.8h66.4v9.3zm100.9 0v-97.7h9.4v97.7zm-3.5 0v-97.7h9.4v97.7zm40.5 0v-69.2h9.4v69.2zm0-85.5v-11.2h9.4v11.2zm-3.5 85.5v-69.2h9.4v69.2zm0-85.5v-11.2h9.4v11.2zm35.6 25.1v-8.8h55.4v9.2l-47.1 50.9h49.1v9.1h-60.9v-9.5l47.3-50.9zm-3.5 0v-8.8h55.4v9.2l-47.1 50.9h49.1v9.1h-60.8v-9.5l47.2-50.9zm132.9 14.5v29.3q0 9.1 2 16.6h-9.6q-1.9-6.5-1.9-11.1-5.7 5.9-13.2 9.2-7.4 3.4-14.8 3.4-9.4 0-15.7-5.8-6.2-5.8-6.2-13 0-7.1 3.7-11.8 3.7-4.7 12.2-8.1 8.6-3.4 28.4-7.5l5.6-1.2v-4.3q0-5.7-4.8-9.3-4.7-3.6-10.8-3.6-11.7 0-25.8 11.6l-6.8-5.8q5.9-6.1 14.2-9.8 8.4-3.6 16.8-3.6 12.1 0 19.4 6.6 7.3 6.6 7.3 18.2zm-3.5 0v29.3q0 9.1 2 16.6h-9.6q-1.8-6.5-1.8-11.1-5.8 5.9-13.2 9.2-7.4 3.4-14.9 3.4-9.4 0-15.7-5.8-6.2-5.8-6.2-13 0-7.1 3.7-11.8 3.8-4.7 12.3-8.1 8.5-3.4 28.3-7.5l5.7-1.2v-4.3q0-5.7-4.9-9.3-4.7-3.6-10.8-3.6-11.7 0-25.7 11.6l-6.9-5.8q5.9-6.1 14.3-9.8 8.3-3.6 16.7-3.6 12.1 0 19.4 6.6 7.3 6.6 7.3 18.2zm-6 27v-19.9l-4.5 0.9q-0.7 0.2-2 0.4-16.1 3.3-21.8 5.7-5.7 2.5-8.4 6-2.7 3.4-2.7 8.4 0 4.4 4.2 7.5 4.2 3.1 9.8 3.1 10.9 0 25.4-12.1zm-3.4 0v-19.9l-4.6 0.9q-0.6 0.2-1.9 0.4-16.1 3.3-21.9 5.7-5.7 2.5-8.4 6-2.7 3.4-2.7 8.4 0 4.4 4.2 7.5 4.2 3.1 9.8 3.1 10.9 0 25.5-12.1zm36.3 18.9v-97.7h9.4v37.3q10.1-10.3 20.7-10.3 12.5 0 20.4 10.1 7.8 10.2 7.8 25.9 0 16.1-7.8 26.1-7.9 10.1-20.7 10.1-4.8 0-9-1.8-4-1.8-9.3-6.8-1.4-1.4-2.1-2v9.1zm-3.5 0v-97.7h9.3v37.3q10.2-10.3 20.8-10.3 12.5 0 20.3 10.1 7.9 10.2 7.9 25.9 0 16.1-7.9 26.1-7.8 10.1-20.7 10.1-4.8 0-8.9-1.8-4.1-1.8-9.3-6.8-1.5-1.4-2.2-2v9.1zm12.8-52.1v34.8q1 0.9 3 2.5 5.6 4.8 9.1 6.2 3.4 1.4 7.6 1.4 9.2 0 14.5-7.6 5.4-7.6 5.4-20.2 0-12.7-5.5-20-5.4-7.4-15.1-7.4-8 0-19 10.3zm-3.4 0v34.8q1 0.9 2.9 2.5 5.6 4.8 9.1 6.2 3.5 1.4 7.6 1.4 9.3 0 14.6-7.6 5.3-7.6 5.3-20.2 0-12.7-5.5-20-5.4-7.4-15-7.4-8.1 0-19 10.3zm129.5 18.3h-52.1q0.3 8.4 3.1 14.4 2.8 6 8 9.3 5.2 3.3 10.3 3.3 12.9 0 23-14.2l7.7 5.4q-5.7 7.6-13.7 12.2-7.9 4.6-16.3 4.6-8.3 0-15.9-4.6-7.6-4.7-11.6-12.7-4-8.1-4-18.9 0-10.5 4-18.4 4.1-8 11.7-12.6 7.6-4.7 15.4-4.7 8.2 0 15.6 4.7 7.5 4.7 10.9 12.1 3.5 7.4 3.9 20.1zm-3.5 0h-52.1q0.3 8.4 3.1 14.4 2.8 6 8 9.3 5.2 3.3 10.4 3.3 12.8 0 23-14.2l7.6 5.4q-5.7 7.6-13.7 12.2-7.9 4.6-16.2 4.6-8.4 0-16-4.6-7.6-4.7-11.6-12.7-4-8.1-4-18.9 0-10.5 4.1-18.4 4-8 11.6-12.6 7.6-4.7 15.4-4.7 8.2 0 15.6 4.7 7.5 4.7 10.9 12.1 3.5 7.4 3.9 20.1zm-48.2-8.4h41.8q-1-9.6-6.8-15.1-5.8-5.5-13.5-5.5-8.3 0-14.8 6.4-6.4 6.3-6.7 14.2zm-3.5 0h41.8q-1-9.6-6.8-15.1-5.8-5.5-13.5-5.5-8.3 0-14.7 6.4-6.5 6.3-6.8 14.2zm79.7-27v-25.2h9.4v25.2h13.2v8.5h-13.2v43.1q0 5 2.7 8.1 2.7 3.2 7.7 3.2 1.6 0 2.6-0.5 0.8-0.3 1.5-0.5v8.3q-0.9 0.2-2 0.4-1.4 0.3-3.4 0.3-10 0-14.2-4.1-4.3-4.1-4.3-13.6v-44.7h-10.7v-8.5zm-3.4 0v-25.2h9.3v25.2h13.2v8.5h-13.2v43.1q0 5 2.7 8.1 2.7 3.2 7.7 3.2 1.6 0 2.6-0.5 0.8-0.3 1.6-0.5v8.3q-0.9 0.2-2 0.4-1.5 0.3-3.4 0.3-10 0-14.3-4.1-4.2-4.1-4.2-13.6v-44.7h-10.7v-8.5zm43.3 69.2v-97.7h9.3v36.1q11.9-5.9 16.9-7.5 5.2-1.6 9.9-1.6 8.9 0 13.9 6 5.1 6 5.1 17.1v47.6h-9.4v-49.7q0-12.3-11.9-12.3-10.5 0-24.5 8.5v53.5zm-3.5 0v-97.7h9.4v36.1q11.8-5.9 16.9-7.5 5.2-1.6 9.9-1.6 8.9 0 13.9 6 5.1 6 5.1 17.1v47.6h-9.4v-49.7q0-12.3-11.9-12.3-10.5 0-24.5 8.5v53.5zm128.2 0v-97.7h39.2q13.3 0 20.7 3.1 7.5 3.1 12.1 9.4 4.5 6.3 4.5 14.1 0 18.3-21.3 24.8l23.6 46.3h-10.2l-22.9-44.3h-36.3v44.3zm-3.5 0v-97.7h39.2q13.3 0 20.8 3.1 7.4 3.1 12 9.4 4.6 6.3 4.6 14.1 0 18.3-21.4 24.8l23.6 46.3h-10.2l-22.9-44.3h-36.2v44.3zm46.6-89.2h-33.7v36.4h30.2q12.7 0 19.5-4.7 6.9-4.7 6.9-13.7 0-8.4-6.1-13.1-6-4.9-16.8-4.9zm-3.6 0h-33.6v36.4h30.2q12.6 0 19.4-4.7 6.9-4.7 6.9-13.7 0-8.4-6-13.1-6-4.9-16.9-4.9zm75.8 89.2l-26.2-69.2h9.7l21.3 56.5 21.5-56.5h9.7l-27.9 73.7q-4.4 11.7-7.7 15.8-3.2 4-8.1 5.9-4.7 1.9-11.9 1.9-3.8 0-9.1-1l2.5-9q3.1 0.6 6.6 0.6 5.2 0 8.4-1.2 3.3-1.3 5.5-4.2 2.1-2.9 4.5-10.1 0.5-1.6 1.2-3.2zm-3.5 0l-26.1-69.2h9.6l21.3 56.5 21.6-56.5h9.6l-27.9 73.7q-4.4 11.7-7.6 15.8-3.3 4-8.2 5.9-4.7 1.9-11.9 1.9-3.8 0-9.1-1l2.6-9q3 0.6 6.5 0.6 5.2 0 8.5-1.2 3.2-1.3 5.4-4.2 2.1-2.9 4.5-10.1 0.6-1.6 1.2-3.2zm57.7 0v-97.7h9.4v97.7zm-3.5 0v-97.7h9.4v97.7zm95.8-33.8h-52.1q0.3 8.4 3.1 14.4 2.8 6 8 9.3 5.2 3.3 10.4 3.3 12.8 0 22.9-14.2l7.7 5.4q-5.7 7.6-13.7 12.2-7.9 4.6-16.2 4.6-8.4 0-16-4.6-7.6-4.7-11.6-12.7-4-8.1-4-18.9 0-10.5 4.1-18.4 4-8 11.6-12.6 7.6-4.7 15.4-4.7 8.2 0 15.6 4.7 7.5 4.7 10.9 12.1 3.5 7.4 3.9 20.1zm-3.5 0h-52.1q0.3 8.4 3.1 14.4 2.9 6 8 9.3 5.2 3.3 10.4 3.3 12.8 0 23-14.2l7.6 5.4q-5.7 7.6-13.7 12.2-7.9 4.6-16.2 4.6-8.4 0-16-4.6-7.6-4.7-11.6-12.7-4-8.1-4-18.9 0-10.5 4.1-18.4 4-8 11.6-12.6 7.6-4.7 15.4-4.7 8.2 0 15.6 4.7 7.5 4.7 10.9 12.1 3.5 7.4 3.9 20.1zm-48.2-8.4h41.8q-1-9.6-6.8-15.1-5.8-5.5-13.5-5.5-8.3 0-14.7 6.4-6.5 6.3-6.8 14.2zm-3.5 0h41.8q-0.9-9.6-6.8-15.1-5.8-5.5-13.5-5.5-8.3 0-14.7 6.4-6.5 6.3-6.8 14.2z"/><path  d="m25.6 125v-95.5h60.4v10.9h-47.5v28.2h45.5v10.9h-45.5v34.6h48.6v10.9zm-3.4 0v-95.5h60.3v10.9h-47.4v28.2h45.5v10.9h-45.5v34.6h48.6v10.9zm78.9 0v-99.5h11.8v99.5zm-3.4 0v-99.5h11.7v99.5zm32.5 0v-71.6h11.7v71.6zm0-84.6v-14.9h11.8v14.9zm-3.4 84.6v-71.6h11.7v71.6zm0-84.6v-14.9h11.8v14.9zm26.3 22.4v-9.4h55.9v10.7l-44.2 51.5h44.2v9.4h-57.5v-10.7l44.3-51.5zm-3.4 0v-9.4h55.9v10.7l-44.3 51.5h44.3v9.4h-57.5v-10.7l44.2-51.5zm114.9 26.2h-11.8q-14.2 0-19.7 3.2-5.5 3.3-5.5 11.2 0 6.2 4.1 10 4.1 3.6 11.2 3.6 9.8 0 15.7-6.9 6-7 6-18.5zm11.7-4.9v40.9h-11.7v-10.9q-4.1 6.6-10.1 9.7-6 3.1-14.7 3.1-11 0-17.5-6.2-6.5-6.2-6.5-16.5 0-12.1 8.1-18.3 8.1-6.1 24.1-6.1h16.6v-1.2q0-8.1-5.4-12.5-5.3-4.5-15-4.5-6.1 0-12 1.5-5.8 1.5-11.1 4.4v-10.9q6.4-2.5 12.5-3.7 6.1-1.2 11.8-1.2 15.6 0 23.2 8 7.7 8.1 7.7 24.4zm-15.2 4.9h-11.7q-14.3 0-19.8 3.3-5.5 3.2-5.5 11.1 0 6.3 4.1 10 4.2 3.6 11.3 3.6 9.8 0 15.6-6.9 6-7 6-18.5zm11.8-4.8v40.8h-11.8v-10.8q-4 6.5-10 9.6-6.1 3.1-14.8 3.1-11 0-17.5-6.1-6.4-6.2-6.4-16.6 0-12.1 8-18.2 8.1-6.2 24.2-6.2h16.5v-1.1q0-8.2-5.4-12.6-5.3-4.4-14.9-4.4-6.2 0-12 1.4-5.8 1.5-11.2 4.4v-10.8q6.5-2.5 12.5-3.7 6.1-1.3 11.9-1.3 15.5 0 23.2 8 7.7 8.1 7.7 24.5zm71.8 5.1q0-13-5.4-20.4-5.3-7.4-14.6-7.4-9.3 0-14.7 7.4-5.3 7.4-5.3 20.4 0 13 5.3 20.4 5.4 7.3 14.7 7.3 9.3 0 14.6-7.3 5.4-7.4 5.4-20.4zm-40-63.8v38.8q3.7-6.4 9.3-9.5 5.7-3.1 13.6-3.1 13 0 21.1 10.3 8.2 10.4 8.2 27.3 0 16.9-8.2 27.2-8.1 10.4-21.1 10.4-7.9 0-13.6-3.1-5.6-3.1-9.3-9.5v10.7h-11.9v-99.5zm36.6 63.8q0-13-5.3-20.4-5.4-7.4-14.7-7.4-9.3 0-14.7 7.4-5.3 7.4-5.3 20.4 0 13 5.3 20.4 5.4 7.3 14.7 7.3 9.3 0 14.7-7.3 5.3-7.4 5.3-20.4zm-40-63.8v38.8q3.7-6.4 9.3-9.5 5.7-3.1 13.6-3.1 13 0 21.2 10.3 8.1 10.4 8.1 27.3 0 16.9-8.1 27.2-8.2 10.4-21.2 10.4-7.9 0-13.6-3.1-5.6-3.1-9.3-9.5v10.7h-11.8v-99.5zm128.3 60.8v5.7h-54.1q0.8 12.2 7.3 18.6 6.6 6.3 18.3 6.3 6.8 0 13.1-1.6 6.4-1.7 12.6-5v11.1q-6.3 2.7-12.9 4.1-6.7 1.4-13.5 1.4-17.2 0-27.2-10-10-10-10-27 0-17.6 9.5-27.9 9.5-10.3 25.6-10.3 14.5 0 22.9 9.3 8.4 9.3 8.4 25.3zm-53.7-3.4l41.9-0.1q-0.1-9.6-5.4-15.4-5.3-5.7-14-5.7-9.8 0-15.8 5.5-5.8 5.6-6.7 15.7zm50.2 3.4v5.7h-54.1q0.8 12.2 7.3 18.6 6.6 6.3 18.3 6.3 6.8 0 13.1-1.6 6.4-1.7 12.7-5v11.1q-6.3 2.7-13 4.1-6.6 1.4-13.5 1.4-17.1 0-27.2-10-10-10-10-27 0-17.6 9.5-27.9 9.5-10.3 25.7-10.3 14.4 0 22.8 9.3 8.4 9.3 8.4 25.3zm-53.7-3.4l42-0.1q-0.2-9.6-5.5-15.4-5.2-5.7-13.9-5.7-9.9 0-15.8 5.5-5.9 5.6-6.8 15.7zm68.7-49.8h11.9v20.3h24.2v9.2h-24.2v38.8q0 8.8 2.3 11.3 2.5 2.5 9.8 2.5h12.1v9.8h-12.1q-13.6 0-18.8-5-5.2-5.1-5.2-18.6v-38.8h-8.6v-9.2h8.6zm-3.4 0h11.8v20.3h24.3v9.2h-24.3v38.9q0 8.7 2.4 11.2 2.4 2.5 9.8 2.5h12.1v9.9h-12.1q-13.7 0-18.8-5.1-5.2-5.1-5.2-18.5v-38.9h-8.7v-9.2h8.7zm107.2 48.8v43.2h-11.8v-42.8q0-10.2-4-15.3-3.9-5-11.9-5-9.5 0-15 6.1-5.5 6-5.5 16.5v40.5h-11.8v-99.5h11.8v39q4.2-6.4 9.9-9.6 5.8-3.2 13.3-3.2 12.3 0 18.6 7.6 6.4 7.6 6.4 22.5zm-3.5 0v43.2h-11.8v-42.8q0-10.2-3.9-15.3-4-5-11.9-5-9.5 0-15 6.1-5.5 6-5.5 16.5v40.5h-11.9v-99.5h11.9v39q4.2-6.4 9.9-9.6 5.7-3.2 13.2-3.2 12.4 0 18.7 7.6 6.3 7.6 6.3 22.5zm88.1-2.4h-20.7v35h20.7q10.4 0 15.4-4.3 5-4.3 5-13.2 0-9-5-13.2-5-4.3-15.4-4.3zm-1.6-39.3h-19.1v28.8h19.1q9.4 0 14.1-3.5 4.6-3.6 4.6-10.9 0-7.2-4.6-10.8-4.7-3.6-14.1-3.6zm-32.1 84.9v-95.5h33q14.8 0 22.8 6.2 8 6.1 8 17.4 0 8.8-4.1 14-4.1 5.2-12 6.4 9.5 2.1 14.8 8.6 5.3 6.5 5.3 16.2 0 12.8-8.7 19.8-8.7 6.9-24.8 6.9zm30.2-45.6h-20.7v35h20.7q10.4 0 15.4-4.3 5.1-4.3 5.1-13.2 0-9-5.1-13.2-5-4.3-15.4-4.3zm-1.6-39.3h-19.1v28.8h19.1q9.5 0 14.1-3.5 4.7-3.6 4.7-10.9 0-7.2-4.7-10.8-4.6-3.6-14.1-3.6zm-32 84.9v-95.5h33q14.7 0 22.7 6.2 8 6.1 8 17.4 0 8.8-4.1 14-4.1 5.2-12 6.4 9.5 2.1 14.8 8.6 5.3 6.5 5.3 16.2 0 12.8-8.7 19.8-8.7 6.9-24.8 6.9zm126.4-72.7l0.1 12.1q-2-1.2-4.3-1.7-2.3-0.6-5.2-0.6-9.9 0-15.3 6.6-5.3 6.4-5.3 18.6v37.7h-11.9v-71.6h11.9v11.1q3.7-6.5 9.6-9.6 6-3.2 14.5-3.2 1.2 0 2.7 0.2 1.4 0.1 3.2 0.4zm-3.4 0v12.1q-1.9-1.2-4.3-1.7-2.3-0.6-5.1-0.6-10 0-15.4 6.6-5.3 6.4-5.3 18.6v37.7h-11.8v-71.6h11.8v11.1q3.7-6.5 9.7-9.6 5.9-3.2 14.4-3.2 1.3 0 2.7 0.2 1.5 0.1 3.3 0.4zm33.8 9.3q-9.5 0-15 7.5-5.5 7.3-5.5 20.2 0 12.8 5.4 20.2 5.5 7.4 15.1 7.4 9.4 0 14.9-7.4 5.5-7.4 5.5-20.2 0-12.8-5.5-20.2-5.5-7.5-14.9-7.5zm0-9.9q15.3 0 24.1 9.9 8.7 10 8.7 27.7 0 17.6-8.7 27.6-8.8 10-24.1 10-15.5 0-24.2-10-8.7-10-8.7-27.6 0-17.7 8.7-27.7 8.7-9.9 24.2-9.9zm-3.5 9.9q-9.5 0-15 7.5-5.5 7.3-5.5 20.2 0 12.8 5.5 20.2 5.5 7.4 15 7.4 9.4 0 14.9-7.4 5.5-7.4 5.5-20.2 0-12.8-5.5-20.2-5.5-7.5-14.9-7.5zm0-9.9q15.3 0 24.1 9.9 8.8 10 8.8 27.7 0 17.6-8.8 27.6-8.8 10-24.1 10-15.4 0-24.2-10-8.7-10-8.7-27.6 0-17.7 8.7-27.7 8.8-9.9 24.2-9.9zm60.6 73.3l-18.8-71.6h11.8l14.7 55.9 14.7-55.9h13.9l14.7 55.9 14.6-55.9h11.8l-18.8 71.6h-13.8l-15.5-58.7-15.4 58.7zm-3.5 0l-18.7-71.6h11.7l14.8 55.9 14.6-55.9h13.9l14.7 55.9 14.6-55.9h11.8l-18.7 71.6h-13.9l-15.4-58.7-15.5 58.7zm150.1-43.2v43.2h-11.8v-42.8q0-10.2-3.9-15.3-4-5-11.9-5-9.6 0-15.1 6.1-5.5 6-5.5 16.5v40.5h-11.8v-71.6h11.8v11.1q4.3-6.4 10-9.6 5.7-3.2 13.2-3.2 12.3 0 18.7 7.6 6.3 7.6 6.3 22.5zm-3.5 0v43.2h-11.7v-42.8q0-10.2-4-15.3-4-5-11.9-5-9.5 0-15 6.1-5.5 6-5.5 16.5v40.5h-11.9v-71.6h11.9v11.1q4.2-6.4 9.9-9.6 5.8-3.2 13.2-3.2 12.4 0 18.7 7.6 6.3 7.6 6.3 22.5z"/></svg>